<svg xmlns="http://www.w3.org/2000/svg" viewBox="0 0 421.75 295.63"><title>Asset 1</title><g id="Layer_2" data-name="Layer 2"><g id="Layer_1-2" data-name="Layer 1"><path d="M81.55,169.37c2.55,3.86,6.86,1.76,10.23,2.9,1.47.5,3.16-.12,3.85,2,.55,1.74,2.17,2.4,3.88,2.59.17,0,.66-.78.62-1.16a4.89,4.89,0,0,0-2.85-4.32,57.28,57.28,0,0,0-7.68-1.76c3.26-2.7,8.71-1.14,11.29,2.67,3.21,4.75,6.7,9.3,10.4,14.39.36-5-1.42-8.46-4-11.65-.71-.88-1.42-2.43-.13-3,1.68-.75,1.23,1.34,1.84,2,2.38,2.57,4,5.33,3.87,8.92a3.22,3.22,0,0,0,.45,1.32c5.64-1.56,5,5.3,8.7,6.44a5.7,5.7,0,0,0,3.35.23c.52-4.17-3.49-4.8-6.06-7.78,6.57,1.57,10.85,5.24,14.6,9.26,2.66,2.85,8.66,8.06,12.64,9.61,2.48,1,.58,3.83,1.79,5.5,2.17-5.7,1.67-7.89-3.54-13.13-1.53-1.54-2-2.21.52-2.85,3-.76,3-.84,2.86-4.22,3.77.73,5.15,4,7.61,6.72.27-1.72-.82-5.2,2.81-2.77a4,4,0,0,0,.92.33c-.44-4,2.83-2.74,4.66-3.11,5.53-1.11.45-3.34.43-4.9,0-1-1.69-1.86-2.47-2.91a1.47,1.47,0,0,1,.52-2.16c1-.62,1.49.22,1.65,1.08.43,2.35,2.31,3.51,4,4.81.92.73,2,1.21,3.11.12s.46-2.15-.48-2.88c-2.92-2.27-2.59-6.25-5.58-8.8,3.38-.39,2.92,2.63,4.59,3.32l-.1-.16c.86,3.48,6.47,3.46,5.9,8l1.42-.23c-1.93-2.05-.44-4.4-1-6.59,2.1-2.57.55-5.46.68-8.2.07-1.39-.88-2.69.57-4.11,1.12-1.1,1.71-2.81-1.27-1.86-1,.33-1.45-1.46-1.13-1.58,5.71-2,1.06-6.2,1.31-9,.26-2.93,1.14-5.46,3-5.47s5.26.12,6.24,3.33a20.55,20.55,0,0,0,1.83,3.45c1.2-3-2.85-10.34-5.08-9.35-5.21,2.31-5-2.8-8.15-4.48,4.13-.44,7.48,2.32,10.71-.82l-3.89-7.76c5.82,2.64,3,9.82,8.83,12-1-2.56-3.56-4.26-1.86-6.56,1.37-1.86,2.93,0,4.34.46,2.23-10-5.5-14.59-10.54-20.76,3,2.76,6.44,4.37,9.88,6.53a6.21,6.21,0,0,0-1.44-5.85c-1.43-1.75-2.57-3.27-2.44-5.68a2.11,2.11,0,0,0-2.61-2.24c-2.68.29.33,2.17-1,3.07-5.27-7.89-14.22-10.76-21.55-15.77,3.1-.4,6.05-5.59,9.59-.44-.26,1.65-3.25-.46-2.89,2,.23,1.6,1.83,1,2.7,1.67,2.52,1.79,5.27,3.28,7.68,5.21,3.81,3.06,3.71,3.17,6.7-.4.2-.24,1-.37,1.17-.21,2.8,3.31,1.47-1.07,2.37-1.26l-.15.16c.82,0,1.95-.4,2.41,0,5.11,4.4,7.06,4.7,14.51,1.94.59-.22,1.83.22,1.48.6-1.2,1.31.33,4.3-2.69,4.36-3.43.07-6.86.14-10.28.14-1.64,0-3.27-.17-6-.34,4,2.22,7,3.17,10.46,3.09,2.62-.06,5.83,1.08,7.72.53,4.41-1.27,9.26-3.5,12.11-6.88C221.73,104,223.15,98.6,215,96c5.41-1,7.09-2.56,4.55-6-.59-.79,6-6.44,6.83-5.7,3.26,2.89,4.05-.69,5.72-1.84,1.14-.79,2.08-2.8,3.63-1.3s-.7,2.25-1.3,3.22c-2.64,4.22-5.82,7.63-12.21,5.31,1.4,2,3.84.67,3.74,3-.06,1.46-.69,2.66-2.21,2.94-2.77.5-2.6,1.79-.76,3.13,2.13,1.55,1.47,3.06.76,5-1.37,3.81-.73,8.4-4.68,11.16-2.29,1.6-4.14,4.21-7.55,2-3.23-2.1-5.16,3.31-8.55,1.25,1.76,1.89,3.9.14,6,1.66-5.25,4.2-10.53,2.4-15.72.35-.71,2.19,1.9,2.4,1.63,4.12-.19,1.23-.32,2.71,1.68,3,2.45.32,1.5-1.36,1.73-2.49.06-.28,1-.57,1.58-.53,4.7.32,9.13-.14,12.45-4.79,1.56,5.31.26,7.17-4.55,6.78-2.35-.19-4.73,1.19-7.2.49-.38,1.9,2.15,1.2,1.82,2.51-.42,1.69-1.89.76-2.89.78-1.54,0-3.31-1.19-4.41.75a1.71,1.71,0,0,0,.45,2.25c1.56,1,3.23,2,4.76-.06.77-1.05,1.39-.47,2,.1,2.34,2.25,4.63,1.83,7.26.13-1.69,2.91-3,4.9-6.81,6.88-4.25,2.19-10.28,5.69-11.53,12.66-1.47,8.21-3.48,16.21-3.93,24.67-.15,2.8-.83,8.28-6.3,9.9-4.22,1.25-5.12,6.4-7.35,9.87-3,4.6-7.81,6.91-11.93,9.67-6.59,4.42-11.73,11.38-11.78,19.82,5.38-.65,9.93-3.21,14.68-5.59,5-2.51,10.8-1.74,16.31-2.28-3.06,2.64-7.14,1.73-12,3.34,6.17,2.8,10.63-1.76,15.37-.79-.31,2.27-1.73,2.82-3.77,2.82-10.26,0-20.24,2.4-30.33,3.77-3.7.5-2.81,4.17-3.4,6.66-.21.9.2,1.94.06,2.88-.16,1.15-4.2,1.79-.78,3.17,1.27.51,4.6-1.2,5.28-2.68,1.83-4,1.53-3.79,6.88-4.89,7.39-1.52,14.74-3.14,22.28-4-7.87-.94-15.6-.11-23.37.75,5.82-2.23,11.94-3,18-3.56,2.8-.24,6.41-2.23,8.67,1.74.25.43,2,.37,2.87,0,5.45-2.31,11.36-.88,17-2.27,4.28-1.06,4.61-.35,5.78,5.56-2.6-4.73-6.8-3.78-9.27-3.24a84.26,84.26,0,0,1-9.4,1c-2.58.27-4.7,1.9-4.52,3.77.23,2.33,3,1.1,4.68,1.06a21.29,21.29,0,0,0,3.88-.8h1c2.39,1.31,5.17.59,9.14,1.79l-9.76,1.68c-6.21-3-11.51,2.29-17.43,2-.29,0-.62,1-.94,1.54-4.86-1.54-9.36.67-13.29,1.94-2.32-3.09,4.22-1.37,1.06-3-2.1-1.08-6.06,1.45-9.18,2.38,0,0,0,.24-.06.48.74,1.32,2.46-.54,3.23.81-.94,1-2.72-.93-3.43,1.14,7.14,1.7,13.61-2.24,20.49-2.27.39,0,.78-1,1.17-1.48,6.28-.47,12.53-1.06,18.39-3.62.19,8-6.61,6.08-10.89,7.47-3.09,1-7-.24-8.93,3.78-.26.54-2.17.34-3.32.39-4.12.17-8.18.52-12,2.16-.29.12-1.8.67-1.89-.59-.07-.95,1.69.2,1.68-1.63l-5.82.86c1.48,4.55,4.89,3.3,7.65,2.91a46.59,46.59,0,0,0,8.52-2.24c1.55-.54,2.37,0,3.75,1.5-6.13-.35-11.2,2.44-17.52,2.15,2.78,2.83,5.34.68,7.58,1.05,2.67.45,5-1.92,8-.69-2,3.42-5.46,2-8.65,2.84l2.87,1.12-16.91,3.77c3.86.74,16-1,18.14-1.2,6.12-.54,9.61-7,16-6.68-1.15,1.92-1.15,1.92,6.54,3.28-6-.52-11.28,2.08-16.78,3.77,5.89,2.51,10.74-3.58,16.92-2-1.79,2.32-4.76,1.53-6.46,3.25,2.68.92,5.25-.24,7.84-.37,5-.25,5.09.31,3.8,5.1-1,3.75-2,5.81-6.37,4,.91-2.76,4.39-4,4.36-7.56l-21.88,3.7,0,0c-3.92-.47-7.67.6-11.33,1.64-3.87,1.1-7.81-1.23-11.55.63-1.29-6.44-6.42-.53-8.72-3.55-1.18,2.77,2.81,1.63,1.63,3.55-.79,1.29-2.45.44-3.71.68-2.49.47-5.34-.55-7.39,1.77l0-.07c-4.67.57-9.31,1.56-14.06,1.13.82-1.81,2.8-.53,4-1.49.92-.77,1.73-1.63,1.42-2.93-.14-.58-.53-1.46-1-1.55-1.57-.34-1.56.91-2,2-1.15,2.81-4.3,1.13-6.36,2.43-1.66,1-4,1-6.2,1.47,1.28,1.75,3,.73,4.27,1.18-1.29,1.36-3,1.05-4.62,1.05-7.14,0-14,1.78-20.91,3.26-2.58.55-5.1-1.48-7.65.23-1,.7-2.63.6-3,2.2l0,0c-1.53,1.14-3.86,1.26-4.57.07-2.13-3.61-5.78-2.62-8.42-2.64-4.19,0-5.78-1.47-5.87-5.38,2.27-1.12,1.8,1.79,3.18,2.27.18-.25.49-.49.48-.71-.2-2.85.22-5.76.21-8.48,0-5.06-6-6.16-12.43-2.92-3.63,1.82-6.45,5-10.51,6.11-.86-.94-.17-1.69.39-2.55.41-.63,2-1.2.28-2.19-1.17-.68-1.61-.53-2.66.66-3.17,3.6-11.21,4.56-13.38,1.87-.78-1-2.77-1.81-.05-3.76,2.35-1.68.08-5.16.1-7.84,0-1.1,2-4.06-1.89-3.18-.25.06-1-.82-1-1,.3-.65.53-1.71,1.66-1.22,1.53.67,1.77-.44,1.83-1.4.08-1.29-1.08-.86-1.79-1-1.66-.37-4.12,0-4.11-2.47,0-2.36,2.28-2.14,3.81-1.86,2,.37,1.35-1.53,2.09-2,1.29-.82,1.86-3.18,3.87-2.35A2.89,2.89,0,0,1,27,242.26c-.46,1.41.8,2,1.13,3.07,2.24-1,1.34-3.26,2-4.9.29-.76.28-2.22,1.72-1.68.85.32,2,.82,1.73,2.1-.65,2.74-3.06,5,0,8.3,1.74,1.86-1.55,5.46-.78,8.54,1.69.41,2.26-2.88,4.24-1.22,1.56,1.31-.33,1.91-.56,2.86-.18.76.66,1.58.84,1.39.79-.83,2.82,0,2.7-1.41-.41-5,3.8-4.4,6.57-5.51-.86-1.92-2.55-.11-3.62-1,2.18-2.12,4.17-4.39,7.17-.87.87,1,2.31.36,3.68-.06,3.08-1,6.33-1.39,9.48-2.32a34,34,0,0,0-9.58-.61C60,247,66.58,246.37,72.49,243c-9.56,2.78-19.55.54-29.18,2.8,15.54-3.9,31.54-5.11,47-6.82-1.11,2.68,2.57,3.33,4.19,4.88s.49-2.1,2.93-2.31c4.91-.43,9.54-1.6,14.43.54,1.62.71,4.11-.78,5.1-2.22,1.29-1.88,3-1.58,4.68-2.06-1.51-3.33-7.43.22-7.4-5.36,2.3-.58,6.24,3.85,7.24-1.38.56-2.92,4.94-7.79-3.29-7.72a3.31,3.31,0,0,1,3.41-1.23c1.39.07,2-.22,2.08-1.82.1-1.45.15-2.3-1.58-2.11-1.32.14-2.38-.11-2.42-1.7-.07-2.73,2.41.63,2.77-1.13,4.77,1.28,2.91-2.85,3.28-4.53s1.37-5-3.15-3.71c-1,.28-3.66-1.3-5.13-3.14a61.06,61.06,0,0,0-33.1-21.72c-11.45-3-22.58-7.08-31.53-15.19A94,94,0,0,1,40.66,153.4c-1.13-1.53-2.66-2.22-3.75-3.57C26.59,137,24.12,122.26,25.41,106.37c.35-4.32,2.45-8.6.48-13.08-.92-2.1,1.41-3.49,1.73-5.5.72-4.62.21-9.29.86-13.84,1.15-8.16.15-16.17-.57-24.24-.2-2.17-.38-3.9-3.13-2a2.19,2.19,0,0,1-3.1-.11c-2.63-2.32-3.45-6.7-8.3-6.74-1,0-.16-3.36.15-5,.49-2.63.09-3.43-2.8-3.19a35.45,35.45,0,0,1-4.37-.5c-1.5-.1-3.63,1.22-4.3-1a5.73,5.73,0,0,1,.89-5.67,20.13,20.13,0,0,1,4.18-3.34C8.84,21,11,20.28,8.87,16.92c-2-3.22,1.72-6.69,3.13-9.34,1.72-3.23,6.19-5.92,9.95-6.77,1.89-.43,5.8-2.42,8.91,2.1,2,3,4.61,6.83,8,9.11,3,2,6.83,2.61,10.23,4a62.35,62.35,0,0,1,30.32,26.6c4.12,6.94,8.07,14,12,21,2.24,4,5,7.55,7.47,11.32,1.63,2.49,4.33,3.46,7.32,3.58,7,.27,14,1.54,20.88,2.53,9.63,1.38,20.15-1.28,27.2-9.89,4.91-6,11.09-10.65,16.51-16.1,7.52-7.56,16.19-13.77,25.09-19.37a91.06,91.06,0,0,1,33.29-13.21c2-.34,3.44.09,5.72,2.7-9.51-.5-16.68,3.23-23.28,8.45.08-3.07,3.12-1.63,3.85-4a3.61,3.61,0,0,0-3.88.07c-8.65,5.21-17.93,9.43-25.48,16.39-1.81,1.67-4.08,2.84-4.56,5.48s-3.19,1.22-4.79,2.72C169.59,61,161.51,66.61,155.8,74.7c1.78,1.38,1.78,1.38,8.16-1.41l-3.73,4.34c5.55,3.77,9,2,14.68-5.17,6.62-8.31,14.19-15.84,23.3-21.58.69-.44,1.38-1,3.46,0-13.16,9.38-23.76,20.7-34.11,33.21,5.25.4,5.92-5,9.93-6.11-.79,2.35-3.09,3.55-3.31,6,2.57.16,2.6-3.35,5.18-3.36.21,2.76-3.25,3.19-3.52,5.49l-1.13,4.27c-3.52-2.89-7.63-5.29-11.89-5.91-3-.44.27-3.36-2.41-3.3-2.27.05-4.39-.46-6.17,1.49-.73.8-2.31,1.06-2.3,2.3,0,2.19,2.53-.86,2.88,1.45-1.47,1.25-3.29.85-4.94.44-1.32-.33-2.57-1.49-2.82,1.06,0,.22-2.87.55-2.58-.47.61-2.11-2.8-.87-1.74-2.58.73-1.18,2.09-.66,3.19-.76,1.48-.14,3,2,4.88-.72-5.23-.55-9.53-.78-14.58,1.47-3.35,1.49-10.36,2.83-12.15.8-3-3.38-3.5-2.65-6.2-.44-1.2,1-4,0-6.13-.12-3-.21-5.9-2.56-9.12-.58a2.37,2.37,0,0,1-1.81-.45c-.12-4.15-2.49-4.28-5.79-3.81-.82.12-.35-1.56.61-2.12,2.2-1.29.78-2.45-.46-2.49-5.56-.16-4.88-5-5.93-8.1-1.42-4.13-4.55-7.07-6.47-10.84-1.82-3.56-3.29-.13-4.1,2.44C77.26,58,75.74,57.24,75,56c-.57-.89-1.16-2.84,0-3.51,1-.57,4.08.06,3.51-1-1.34-2.54-1.33-6.08-3-7.6-2.35-2.12-3.17-4.77-4.74-7.12-.93-1.39-2.23-2.87-3.89-2.69-1.26.14-2.78,1.28-1.42,3.23.41.59-.33.75-.75.73-1.32-.06-2.5-1-2.45-2,.06-1.3.63-3.13,1.61-3.74,4.77-3,0-4.56-1.17-4.49-2.61.16-3.81-1.2-5.11-2.75-3.15-3.75-6.77-5.63-11.68-2.39.13-2.51,2.1-1.8,2.53-3-7.33-5-14.87-7.38-23.31-1.49,6.35.29,9.68,3.77,10.64,10.43-4.16-2.76-6.94-1.56-8.71,2.53,2.66,3.17,5.52.3,9.26-.16-2.67,2.5-2.12,5.62-4.93,7.51-1.09.73-3,4.5.13,7,1.3,1,1.39,3.23.81,4.71-1.72,4.33-.49,7.63,2.62,10.78,1.29,1.31,2,3.81-.07,4.74-5.7,2.55-3.6,8-2.42,10.56,2.34,5,2.08,9.81,1.54,14.61-.23,2,2.48,2,1.38,3s-.88,4.13-3.82,3c-.73-.29-1.78-1.48-2.44,0-.42,1-.13,1.79,1,2.4,1.43.76,3,1.69,2.8,3.73-.08,1,2.05,2.17.34,2.9-2,.87-.9-1.38-1.45-2a1.71,1.71,0,0,0-2.89,0c-.64.86.42,1.53.68,2.1,1.63,3.71,4.47,5.42,7.92,6.86,1.3.54.56,2-.27,3.81-1.39-4.56-6-5.07-7.69-3.93-3.07,2,1.93,4.46.47,7.74,3-1.55,0-2.82,1.27-3.84.29,0,.68-.12.85,0,2.74,2.32-1.2,7.31,3.52,8.87-2.93,2.52-.41,4.79.18,7.25s-2.6.46-3,2.13c2.28,5,6.47,6.69,11.83,6.5a40.14,40.14,0,0,1-3.27,2.53c-.8.51-2.9-2-2.64.89.13,1.42.56,3.32,2.72,3.66,4.06.63,8,1.44,8.35,6.77,0,.59,1.25,1.68,1.71,1.58,6.34-1.36,6.74,6.55,11.63,7.35a.79.79,0,0,1,.45.17c3.56,4.3,3.56,4.3,9.39,4.8.66.06,1.31.22,2,.33,1,.17.84.19,1.09,2a2.91,2.91,0,0,0,2.12,2.11c.78.24,1.75.83,2.31.1.93-1.23-.65-1.31-1.08-2-1.24-1.86.94-1.82,1.76-2.53Zm57.12,51A17.25,17.25,0,0,1,128.48,223c-4-.07-3.37,2.9-3.56,5.21-.3,3.59,2.18,1.11,3.34,1.35,2.73.57,6-1.77,8.27,1.7.29.44,2.64.28,2.73,0,.92-2.95,3.11-3.29,5.69-3.34,1,0,.44-1,.33-1.55s-.45-1.54-1.16-1.32a19,19,0,0,0-3.3,1.8l1.45-6.49c2.06,2.74,2.06,2.74,6.71,2.78-2.74-4.06-8.53-5.88-6.71-11.75-2.86.7,1,2.6-1.81,3.13-.51-1.08-1.57-2.25-1.49-3.34.28-3.71-2.94-2.75-4.23-2.73-3.79,0-8.22,6-8.3,10.48,0,2.61.23,4.34,3.6,2.54C132.25,220.29,134.87,220,138.67,220.42Zm-77.86,55c3.93.72,8.08-2.55,11.15,2.62.91,1.53,4-1.18,6.18-1.53.31,0,.83-1.4.63-1.65-1.42-1.78-3,.61-4.52,0a6.65,6.65,0,0,0-1.21-.25c.36-1.37,2.32-.74,2.4-2.27-1.67-.4-4.13.62-4.8-1.63-1-3.19,1.81-4.56,4.86-6.19-3-.46-5.58,1.34-6.85-2,3.59-1.21,8.66,1.22,10.53-4.63l-11.7,3.09c-.42-1.66,2.42-.8,1.74-3.47-4.51,5.35-9.47-1.52-15,1.28,4.56.64,8,1.91,10.84,4.89-2.49,1.54-3.74-2.22-6.11-.86,2.24,2.5,5.11,3.75,7.85,5.2,1.18.62,2.33,2.53.69,2.77C64.3,271.19,63.78,274.85,60.81,275.37ZM53.95,256c11,2.6,21-3.38,31.8-2.48-1.44-1.72-2.88-1.38-4.3-1s-1.79-.82-2-1.64c-.56-2.1-.43-1.78-2.09-1.64-7.73.66-14,7.35-22.34,5.43C54.46,254.51,53.92,255.3,53.95,256Zm93.86-1.78c-7.26-4.9-13.46-2.74-19.87-1.19.67,2.11,4,2.44,3.86,5.16a1.58,1.58,0,0,0,2.07.39C137.77,256.13,141.79,253.9,147.8,254.21ZM97.52,264.43l2.65-.64c-2.57-.74.44-3.24-1.31-4.2a3,3,0,0,0-2.87,0c-1.1.58-.67,7.47.27,7.29,2.79-.54,5.62,5.93,8.32-.09.51-1.15,1.73.1,2.63.2,1.42.17,3,.86,3.27.6-.14-1.7,0-2.27-.24-2.62-1.71-2.59-6.19,2.26-7.1-2.62-.38.2-1.1.4-1.1.6C102,267.06,99,264.35,97.52,264.43Zm56.15-20.05c-2.94-.18-5.46.26-7.44-.59-2.78-1.19-1.09.64-1.5,1.41-1.94,3.62,0,5.42,2.89,6.84,1.32.64,3.29.8,1.1,2.9-1.13,1.09.37,1.2,1,1.36,2,.51,4.19.63,5.73-.62s-.84-1.14-1.08-1.74a5.56,5.56,0,0,0-4.91-3.57c-1.33-.17-2.36-.23-2.52-2.16-.19-2.28,1.07-2.06,2.4-2C150.87,246.28,152.13,245.65,153.67,244.38ZM27.18,254.6c1.87-.67,1.6,2.82,3.33,1.1.41-.41,1.45-2.18.44-2.3-4.54-.55-1.38-4.38-2.59-6-4.79,1-5.19,3.79-4.83,8.06.23,2.76,2,6-.33,8.84-.47.58.2,1.26.87,1.43.87.23,1.13-.51,1.26-1.15C26,261.26,26.58,257.88,27.18,254.6Zm106.65,7.46c-.05-.17-.05-.4-.14-.45-2.42-1.32-5.19-4.08-7.19-3.6-3.83.92-8.69,1-10.95,5.3-.86,1.65.9,1.89,1.93,2,1.56.1,2.44-1.32,2.9-2.4,1.42-3.33,3.76-3.32,6.48-2.16,1.75.75,3.85.53,5.34,2.11C133,263.66,133.63,263,133.83,262.06Zm-67-14.86c1.25,1.72,2.61,1.59,3.52,1.2C75.92,246,81.5,244.31,87.62,246a1.44,1.44,0,0,0,1.92-1.59c-.15-1.1-1.11-1.48-2.26-1.41C80.33,243.44,73.7,245.19,66.84,247.2ZM17.39,31.36c.4-.15.82-.17,1-.38.59-.87-.13-1.57-.54-2.17-2-3-7.44-4.18-11.36-2.56-1.11.46-2.47,1.14-2.12,2.31.49,1.62,2.22,1.16,3.29.65,3.3-1.59,6.21-1.85,8.58,1.54C16.44,31.09,17,31.19,17.39,31.36ZM122.16,244.2l12.85-2c.49-.08,1-.09,1.48-.14,1.36-.13,1.4-1.1,1.39-2.14,0-.67,0-1.44-.77-1.57s-2-.55-2.31.92a2.57,2.57,0,0,1-3.53,1.75C127.4,239.14,125.14,242.41,122.16,244.2Zm39.15-9.67c4,3.66,10.79,3,19.11-2.18C173.5,232.87,167.5,234.7,161.31,234.53Zm6.19,30.11c-6.33-4.41-11.1,2-16.83,1.89C156.47,267.45,161.95,265.73,167.5,264.64ZM121.94,245.9c6.33,2.13,12.07-1.22,18.14-1a1.38,1.38,0,0,0,1.4-1.61c-.11-.74-.85-.9-1.56-.85C133.78,242.85,128.18,246,121.94,245.9Zm2.4-9.76c4.18,3.52,8.08,1.45,12.11.07,1.35-.46,2.91-.53,2.28-2.23-.55-1.49-2.8-1.2-3.41-.59C132.21,236.56,128.37,236.46,124.34,236.14Zm-6.29,9.27c-4.12-.76-6.05,1.36-8.51,4,3-.85,4.54,2,6.95,1.19,1.69-.56,5.09,1,4.84-1.4s-3,.76-4.6,0c-.37-.19-.78-.3-1.47-.56Zm64.69-85.34c2-3.91,2.05-5.77,1.32-7.73-1-2.56-3-1.24-4.1-1-1.95.45-.76,2.1,0,2.93C181.32,155.79,181.61,157.75,182.75,160.07Zm-69.4,97.74c-1.46-4.29-4.89-5.29-8.61-5.52-1.67,1.45,2.52,2.29,0,3.43-.62.27-2.16-1-1.68.92a1.57,1.57,0,0,0,2.77.66c1.61-2.43,3.16-1.14,4.46-.09A2.68,2.68,0,0,0,113.35,257.81ZM88.73,268.28c-1.33-5,3.28-4,5.09-5.6-4.8-3.82-7,3-11,1.81C84.83,265.64,88.31,263.66,88.73,268.28Zm51.4-8.27c4.14,2.69,6.85-3,10.55-1.41C146.89,256.39,143.41,256.5,140.13,260Z"/><path d="M248.64,132.48c-.27-1-1.2-.79-1.91-1.07-1.51-.59-3.4-1.27-2.75-3.38.49-1.59,1-3.28,3.46-3.53,4.21-.42,6.76-2.49,8-7.18,3-11.23,10.62-20.23,20.92-23.7,12.28-4.14,25.35-3.82,36.11,6.91,4,4,8.12,7.2,8.9,13.11.26,2,1.46,2.54,3.46,2.52a78.35,78.35,0,0,0,19.87-2.9,6.85,6.85,0,0,1,2.48-.14c14.19,1.49,28.26-2.17,42.43-1a27.29,27.29,0,0,0,7.67,0c1.78-.35,3.31-.24,3.91,2.34.33,1.42,2.66.69,4,.6,5.7-.36,10.52,3.22,13.57,6.33,6.16,6.3,2,16.52-5.82,21.3s-16.58,5.78-25.1,7.57c-12.87,2.7-26,3.59-39.15,4.34-2.66.15-3.93-.81-4.58-3.85.05,4.07-2.57,4.08-5.35,4.24,3,4.35,7.11,7,9.4,11.58,5.61,11.3,2.72,21-4.27,29.89-7.53,9.6-19.87,10.51-31.45,5.3-6.72-3-10.39-8-12.8-13.69-2.79-6.56-1.39-13.79,1.3-20.54,2-5,4.47-9.25,9.91-11.42,1.8-.72,4.49-1.73,4.59-4.71a1.54,1.54,0,0,1,.8-1.18c7.88-2.12,3.31-7.87,3.37-12.09a47.2,47.2,0,0,0-.6-9.82c-.52-2.67-1-3.59-3.94-3.38-16,1.18-32.06,2.53-48,4.63a48.8,48.8,0,0,1-5.94.15c-1.31,0-2.3.4-2.42,1.89s1.16,1.24,2,1.66c7.14,3.62,13.32,7.69,15.64,16.45a25,25,0,0,1-15.77,29.82c-3.59,1.26-3.87-2.24-6.12-2,.42,3.93-2.46,3.4-4.61,3.09-11.94-1.7-25.52-14.39-20.45-30.14,2.66-8.26,7.13-14.63,16.23-16.54a18.32,18.32,0,0,0,2.81-1C248.55,132.9,248.57,132.65,248.64,132.48Zm103.41,14a22.1,22.1,0,0,0,6.66,0q15.85-2.36,31.76-4.33c8.42-1,16.45-2.51,22.74-9.17,3-3.15,2.4-6.07-.55-7.14-6.23-2.25-12.1-5.68-19-6.09a170.52,170.52,0,0,0-29,.45c-12.22,1.36-24.56,1.74-36.85,2.49-2,.12-3.8.24-3,3.06,1.63,5.58.63,11.53,2.19,17.06.94,3.34,3.29,5.23,7.41,5.7C340.83,149.22,346.67,146.62,352.05,146.44Zm-47.19,33.13c-.56,11.44,8.17,20.74,20.2,21.53,10.23.67,19.57-9.73,20.21-22.6.34-6.83-3-12.4-6.84-17.51-4.35-5.73-11.21-2.38-16.77-3.44C313.08,155.92,305.49,166.81,304.86,179.57Zm-64.65-40.21c-1.18,1.12-2.42,2.17-3.51,3.37-3.47,3.82-6,16.52-4,19.8a29.41,29.41,0,0,0,14.13,11.78c6.34,2.72,16.49-.52,20.56-6.08,5.43-7.42,4.35-15,1.16-22.63a11,11,0,0,0-13.19-6.24,6.45,6.45,0,0,1-4.73-.42c-2.13-1.17-3.34-.1-5,.74a20.39,20.39,0,0,0-10.45,11.42C235.49,146.4,238.69,143.33,240.22,139.36Zm20.9-13.8c.6-.71,1.46-2.14,1.77-2,4.16,1.48,7.78-.13,11.71-1.25a45.45,45.45,0,0,1,15.92-1.75c6.73.53,13-3,19.78-1.86,1.35.23,3.42,1.51,4.42-.51a5.07,5.07,0,0,0-.52-5.18c-4-6.23-8.28-12.26-15.72-14.36-5.16-1.46-10.73-2.16-16.05-.69-8.86,2.46-13.28,9.94-18.11,16.87-.1.15-.6,0-1.32,0,.67-1,1.19-2,.45-3.17a6.76,6.76,0,0,0-3.82,6.66C259.83,120.42,262.13,122.43,261.12,125.55Zm-16.31,11.27c3.3,1.44,6-.77,8.94,0,1.72.47,1.5-2.33,2.88-3.35,1.19-.88-1.79-1.18-2-2.68-.14-1.06-1-.27-1.29.2C251.46,134.06,248,134.94,244.81,136.82Z"/><path d="M130.31,271.47c.12.92.35,1.49,1.55,1.13,8.15-2.46,16.77-.4,25-2.45.51-.13,1.14.21,2.25.45-2.52,2.52-5.45.95-7.77,1.82-.12,2.58,2.58.82,3.34,2.63H146.4l-.1,1.24c4.82-.5,8.73,3.37,14.21,1.24,3.3-1.28,7.68-.87,11.28,0,5.23,1.25,10.41,2.87,15.9,3.25l-.21,1.23c-3.17,0-6.56.75-9.46-.14-9-2.76-18-1.34-27-.7-1.64.12-3.31,0-5,0-.7,0-1.64-.37-1.86.92-.4,2.46-1.09,3.18-2.59,2.38-6.17-3.29-12,.16-17.54,1.49a124.22,124.22,0,0,1-18.76,3.4c-3.25.27-6.44.17-9.49,1.5-1,.43-1.95.35-2.83-1.11a5.65,5.65,0,0,1,5.11-1.63c8.6.86,16.28-3.68,24.65-4.09,2-4.79,5.95-3.5,9.63-3.35.29,0,.87-1.31.88-2,0-.93-.95-.71-1.47-.59-7.82,1.7-16.1.57-23.69,3.88-1.16.51-2.81.53-5.43-1.24l38-6.38c-5.34-.9-9.43.67-13.36-.62l0,0c2.28.93,2.6-.74,3-2.3Z"/><path d="M232.15,62.89c-3.44-3.89-8-1.34-12.38-2.09A20.43,20.43,0,0,1,231.87,58c-3-4.15-6.37,0-9.45-1.15,3.69-3.26,7.1-6.68,10.93-9.91L207,58.22c4.91-5.91,10.77-9.88,18.52-10.19,1,0,2.16.31,2.59-.9,1.71-4.82,5.6-2.41,8.39-2.14,2,.19,4.13,1.87,2.36,5-2.23,3.95-4.81,7.46-8.9,10.07.8.05,1.57-.13,1.94.17,1.42,1.16,3-2.61,3.5-.3s2,4.5.16,7.12c-2.89,4.17-6.86,4.56-11.69,4.2C225.74,67.38,226.93,63.24,232.15,62.89Z"/><path d="M174.73,90.41l1.13-4.27c2.65-1.21,4.88,1.9,7.53.74l-.12,0-.95,5.88c1.95.06,3.52-1,3.74-2.52.29-2,.8-2.64,2.73-2.14a2.24,2.24,0,0,0,2.76-1.56,1.92,1.92,0,0,1,2.26-1.45c7,1.21,11.39-.24,17.42-7.78,2.91-3.63,5.9-3.27,9.6-3.11-.55,3.39-4.68.41-5.24,3.39.88,1.43,2.67-1.2,3.62,1.86-.08-.45-.64-.48-1.06-.27-6.89,3.63-13.8,7.24-20.64,11-4.95,2.69-4.91,2.77-8.79-2.14,2.54,6.43-1.9,6.84-4.72,8.43-1.47.84-2.22-.58-3.05-1.47-1.12-1.2-1.72-3.57-4.14-1.84l.17.16C176.68,92,174.33,92.28,174.73,90.41Z"/><path d="M230.7,39c2.61-3-.23-7.88,4.6-9.8,1.13-.45,1.47-2.11,1.55-3.47.13-2.18,1.79-1.62,3-1.49s1.39.84,1.62,2.28c.92,5.75-2.17,8.61-6.7,10.65a3.24,3.24,0,0,0-2.2,2.29c-.23.79-2.39,1.79-2.4,1.77-3.19-4.39-5.94.9-8.95.39-.62-3.43-.68-6.56,3.38-8C229.94,31.58,228.29,37.65,230.7,39Z"/><path d="M235.93,278.3c-4.49,5.45-10.67,7.3-15.47,5.7-.86-.29-1.47-1-2.62-.87-.77.12-1.33,2-2.29.39a1.81,1.81,0,0,1,.14-1.39c.68-1.47,1.43-1.36,2.59-.28s1.68-.43,2.38-1a1,1,0,0,0,0-1.71c-1.5-1.19-2.22-3.74-4.42-3.57-1.88.15-2.57-.59-2.1-2s2.63-.92,3-.36c2.38,3.85,5.12,2.09,7.75.67,2.31-1.25,3.32-.07,4.16,1.78C230.12,278.09,231.24,280.38,235.93,278.3Z"/><path d="M142.92,109.64c-1.75-.76-5.29.51-4-3.65a1.37,1.37,0,0,0-.59-1.2c-5.49-1.26-7.64-6.6-11.67-9.65-1.21-.91-4.8-.3-3.55-2.82,1.5-3,3.3.45,4.84.94,7.17,2.27,11.8,8,16.78,13.17.68.71,1.59,1.39.95,2.52S143.87,109.56,142.92,109.64Z"/><path d="M21.41,214.62c2.69.3,1.77,2.18,1.16,3.61-1,2.4-3.58,4.43.15,7.08,1,.69-2.61,3.12-1.39,5.67.53,1.1.24,2.6.31,3.91.05,1,.94,2.59-.89,2.71-1.52.1-2.37-1-2-2.67.45-2.15-1.12-3.27-2-4.9-1.84-3.47.16-7.49,1.12-11.11C18.24,217.5,18.56,214.79,21.41,214.62Z"/><path d="M95.29,225.45c4.13.42,7.59-2.51,11.68-2.34.76,0,1.73.13,1.63-1.2-.34-4.32,4.37-4.21,6.11-6.82.94-1.41,2.85-1.28,2.67,1.21-.23,3.15-.06,5.92-4.72,7-7.75,1.83-15.5,3.72-23.26,5.55-1,.23-2,1-2.31-.35s1.07-1.36,2.06-1.39c2.24-.07,4.65.46,6.28-1.76Z"/><path d="M61.18,207.27c.51,2.81-4.23-.84-2.78,2.87,1,2.54,2.55,2.11,4.71,1.38,2.82-.95,5.86-.5,8.87-.16-.49,2-2,1.9-3.24,1.77-5-.53-10,1.09-15-.81-3.08-1.17-5.63,2.36-8.85,2.18-1.08-.06-2.52.78-2.92-.88-.51-2.12,1.41-1.36,2.3-1.54,4-.82,7.44-3,11-4.78C57.73,206.07,59.36,207,61.18,207.27Z"/><path d="M208.66,211.45c3.33-.18,6.68-.22,10-.59,1.63-.18,2.65,0,2.69,1.78s-1.41,1.71-2.48,1.77c-7.85.44-15.5,2.08-23.18,3.62-.83.17-2.59-.47-2.61-.79-.05-1.21.72-1.37,2.12-1.59,4.7-.74,9.45-1.7,13.59-4.35Z"/><path d="M94.59,86c-11.29.52-15.43-8.69-21.69-14.81-.91-.89-1.66-2.12-.21-3.35C78.18,75.88,88.41,78.12,94.59,86Z"/><path d="M79.86,140.13l-1.51,1c-.19-3.25-3.58-3.56-5-5.93-1.95,5.69,3.66,7.14,5.54,10.85-7.49-5.08-8-6.06-7.24-13.55,0-.4-.11-1.17,0-1.18,6.79-1.56-2.61-1.53-.25-2.62,5-1.2,5-1.2,8.48,6.34Z"/><path d="M163.62,109.66c2.72-.58,3.36,4.13,6.44,1.58,1.89-1.57-2.16-1.88-.35-3.66,3.27,1.9,3.22,6.56,6.54,8.82.62-4-2.31-6.14-4.42-10.15,3.46,2.45,6.22,3.36,8,5.77.47.64,1.37,1.24.67,2.11-.83,1-1.51-1-2.5-.26.5,2.76,3.64,4.27,3.51,8.48-2.86-6.42-8.85-6.07-13.35-8C165.36,113.15,166.32,110,163.62,109.66Z"/><path d="M79.86,140.13l0-5.08c.74-.65,2-3.44,2.25-1.28.56,5.08,5.23,5.64,7.44,8.69.9,1.24,3.14,1.63,1.36,4.2s-3.38,2.26-5.69,1.27C81.7,146.42,82.34,142.23,79.86,140.13Z"/><path d="M191.75,276.88c2.31,2.66,5.41.94,8,1.7a3.62,3.62,0,0,1,2.48,4.19c-.11.78-.67,1.46-.21,2.36.62,1.21,3.2,2,1,3.92-1.28-1.95-5.49,1.46-5.56-3.09,0-.72-1.83-1.65-3-2.08-2.5-.95-1.67-4-3.54-5.33C190.7,278.4,190.58,277,191.75,276.88Z"/><path d="M118.27,211.78c-10.76,1.86-21.2-1-31.06,3.26C96.64,209,113.11,207.34,118.27,211.78Z"/><path d="M60.79,217.44c6.85-2.68,13.69-5.22,21.29-3.1,2,.55,2.57,1.64,2.4,3.13-.23,2-1.9.79-3,.94C74.58,219.32,67.85,215.62,60.79,217.44Z"/><path d="M213.26,94c-6.61,1.64-13.22,3.24-19.81,5-1.41.37-1.8-.55-2.21-1.33-.62-1.18-.09-2,1-2.82,3.71-3,8.07-1.73,12.07-1.76A48.51,48.51,0,0,1,213.26,94Z"/><path d="M166.81,102.42c-8.58-.13-15.42-4.87-23-7.3-.78-.25-1.13-.74-1-1.43.2-1.14,1.08-1,1.94-.86A42.94,42.94,0,0,1,166.81,102.42Z"/><path d="M133.62,141.93c.87,1.13,1.23,2-.4,3a13,13,0,0,1-10.3,1.94c-1.37-.33-4.49.24-3.72-2.46a4.22,4.22,0,0,1,5.4-3.13c3,.8,6,1.62,9.17.8Z"/><path d="M217,262.81c-2.57,1.85-3.12,4.3-5.7,5.18-.46-4.51,3.85-5.56,5.68-8.2.59-.85,1.85-1.22,2.78-1.85,1.47-1,3.12-2.7,4.61-.55,1.36,2-1.24,2.09-2.07,3.07-2.58,3-3.77,7.1-7.37,10C214.51,267.73,216.45,265.88,217,262.81Z"/><path d="M107.4,148.69c-.16,0-.33,0-.49,0-2.4-.14-5.09.54-6.7-2a2.28,2.28,0,0,1,.72-2.11c2.64-1.09,5.26-2.72,8.31-1.48.74.3,1.4.81,2.13,1.15,1.21.56,2.59,1.13,2.18,2.76s-1.82,1.67-3.2,1.64C109.38,148.67,108.39,148.68,107.4,148.69Z"/><path d="M208.48,264.79c-3.49,3.72-7,7.46-10.48,11.17-1.36,1.43-1.92-.21-2.77-.77-1.26-.85-1.94-1.77-.72-3.22,1.94-2.32,4.33-4.35,4.65-7.7a1.39,1.39,0,0,1,2-1c1.36.59.68,1.63.14,2.42-1.77,2.55-5,4.25-4.84,8.56C201.18,271.56,202.14,264.93,208.48,264.79Z"/><path d="M189.24,204.78c-8.38,4-17.26,5.14-26.38,5C171.73,208.47,180.41,206.22,189.24,204.78Z"/><path d="M159.68,132.82c.95-2.72,5.53-4.28,1.66-7.67,4.37,3.29,6.34,8.07,8.42,12.69,2-.71-.24-2.79,1.66-3.24,1.54,2.06,1.06,4.62,1.58,6.79C167.75,140.14,167,132.08,159.68,132.82Z"/><path d="M72.75,283.43c1.68-2.2,4-.74,6.46-1.23-.8,2.62-2.4,5-.58,7.51.73,1,.23,2.16-1.06,2.85s-2.67,1-3-.35c-.69-3-2.78,0-4.14-1.43l6.22-5.91C75.67,283.38,73.7,285,72.75,283.43Z"/><path d="M214.9,63.46c-3.91,4.38-8.24,8.11-14.35,10.27C202.6,65.37,210.1,66.48,214.9,63.46Z"/><path d="M159.39,134.71c.2,1.71-1.3,1.12-1.95,1.62a1.72,1.72,0,0,1-2.86-.53c-1.22-2.07-1.93-4.45-4.67-5.28-.84-.25-1.24-1.55-1-2.6.32-1.25,1.61-1,2.45-1.17C152.76,126.46,159.46,133.36,159.39,134.71Z"/><path d="M187.57,278.34c-3.9-2-5.59-4.29-3.82-8.12.28-.61.24-1.8-1-1.85s-.91,1-1.13,1.73c-.61,2.06.45,6.33-1.45,5.8-2.25-.62.74-3.86.81-6,.13-4.23,3.69-2.36,6-3.29a35.84,35.84,0,0,1-1.8,4.15c-.61,1-2,1.59-.59,3.21,2,2.27,2-1.63,3.86-.67Z"/><path d="M5.15,253.54c4.13-.3,8.64-3.46,12.18,1.49.52.73,1.78,1.26,1,2.39a2,2,0,0,1-2.68.59C12.58,255.58,8.23,256.56,5.15,253.54Z"/><path d="M95.43,225.35c-2.38-.76-4.09-4.95-7.59-.06l-.09-2.19,13.32-5,2.65,0c.11.85,2.2,2.4-.12,2.39-4,0-5.22,3.88-8.31,5Z"/><path d="M183.39,86.88c1.73-3,3.47-6,5.17-9,.23-.41.15-1.22.43-1.35,2-.88,3.6-4.08,5.76-2.45,1.06.8-1.68,3-2.46,4.46C190.92,81.2,188,82.37,187,85c-.72,1.86-2.23,1.68-3.71,1.82Z"/><path d="M150.32,179.81c2.28,1.52,1.32,6.08,5.52,5.89.47,0,1,.84.39,1.55-.4.47-.89,1.47-1.46.93-1.45-1.39-5-.07-4.55-4.35.21-2.12-4.1-2.24-6.18-3.62-1.33-.88-4.53-.5-3.83-2.5.94-2.7,2.9.51,4.47.35,1.92-.19,2.39,1.3,3.3,2.43,1.06,1.31,2,.84,2.4-.67Z"/><path d="M176.83,93.11c.3,2.26,3,2.47,3.84,5.05-8.26-3.93-15.26-9.46-23.75-12l.58-1.45c3.85,1.69,7.72,3.33,11.54,5.07,2.64,1.21,4.67,3.77,8,3.53Z"/><path d="M81.55,169.37l-.36-.13c-1.79-2.4-5.34.07-7.13-2.72,1.49-.76,2.61-2.6,4.76-1.1a1.87,1.87,0,0,0,1.74-.48c.87-1.17,4.13-1.21,5.15.08.87,1.1.33,1.41-2,1.16a14,14,0,0,0-1.46,0C83.8,168.55,83.8,168.55,81.55,169.37Z"/><path d="M63.89,77.49c3.79,4.83,10.39,7,12.43,13.53A38.47,38.47,0,0,1,63.89,77.49Z"/><path d="M74.65,98.69C68.08,99.76,59.73,92.8,57.5,84.86,61.34,91.34,66.87,95.8,74.65,98.69Z"/><path d="M85.61,226.54c-6.36,0-12.08,3.66-18.57,2.86C72.89,226.45,79,225,85.61,226.54Z"/><path d="M218.9,248.46l3.49-2.75c-.71-1.07-3.42-.1-2.73-2.31.33-1.07,1.2-2.57,2.82-2.15,1.44.37,3.49-1.35,4.27,1,.4,1.2.38,2.71-1.6,2.94-.4,0-1.11.6-1.08.71C226.73,253.68,220.26,247,218.9,248.46Z"/><path d="M189.47,211.29a35.86,35.86,0,0,1-19.25,3C176.64,213.31,182.75,210.51,189.47,211.29Z"/><path d="M150.38,179.81c1.55-3,3.26-3.44,5-.2,1.07,2,1.49,2.39,2.52-.17.66-1.63,1.46.11,1.92.77,1.11,1.61.18,3.9,1.89,5.47-4.46-.91-7.19-4.81-11.39-5.87Z"/><path d="M74.21,280.41l22.09-2.55c-7.19,2.57-14.4,4.89-22.05,2.59Z"/><path d="M182.87,249.13c-.74-.88-2.43.22-2.94-1.68,5.91-1,11.6-3.19,17.73-1.56-2.6,1.69-5.58,1-8.39,1.27-1.49.16-3.46-.78-3.92,1.72Z"/><path d="M204.88,279.08c2.51.15-.09,4.43,3.66,3.58.86-.2,3.31.08,3.07,2.25-.15,1.33-1.66,1.58-2.74,1.65-1.52.11-3.67.67-3.9-1.68C204.77,283,203.6,281.1,204.88,279.08Z"/><path d="M75.52,62.72c2,.61,2.94,2.63,4.81.94C82,62.19,84,63,84.73,64.91c1,2.52-1.43,2.36-2.87,2.78C78.44,68.7,78.44,68.68,75.52,62.72Z"/><path d="M103.07,286.79c-5.46-6.62-11.33-3.07-17.57-2.61C94.95,279.08,100,279.63,103.07,286.79Z"/><path d="M114.66,225.26c-5.38,3.58-11.51,3.79-17.45,4.86l-.33-1.52Z"/><path d="M68.05,52.07l6.09,7.48C68.54,62.22,68.54,62.22,68.05,52.07Z"/><path d="M6.71,262c-.24-1.42-.3-3.18,1.15-2.76,2.56.73,3.5,3.53,4.83,5.58.67,1-1.16,3-2,2.71A5,5,0,0,1,6.71,262Z"/><path d="M105.12,236.84c1.37-1.06,2.35-4.47,4.5-.74,2.25-2.65,3.2-.12,4.59,1.07a1.32,1.32,0,0,1,.23,2.09,3.27,3.27,0,0,1-1.69.67c-1.74-3.46-4.58-1.59-7.06-1.6-.59,0-.83-.91-.46-1.62Z"/><path d="M59.75,221.45c-4.69.14-9.25,2.54-14,.52C50.41,221,55,219.29,59.75,221.45Z"/><path d="M127.34,273.74l-20.46,4.82c4.63-3.81,10.12-4.09,15.56-4.34a19.71,19.71,0,0,0,4.88-.5Z"/><path d="M49.1,280.09c-3.34,2.09-6.58,4.48-10.65,4L38,282.68l10.65-4.22Z"/><path d="M177.6,291.21c4.53-1.25,9.08-1.85,13,1.67Z"/><path d="M39.8,67.08c2.49,1.14,2.5,3.46,3,5.42.28,1.1,0,2.71-1.58,2.34-2.12-.51-3.08-2.23-2.91-4.5C38.4,69,38.44,67.78,39.8,67.08Z"/><path d="M133.78,142.08c.38-1.13-.9-3.18,1.81-3,2.41.16,5.15-.51,6.92,1.45,1.09,1.2-.44,2.08-1.62,2-2.43-.07-4.84-.41-7.27-.65Z"/><path d="M177.4,56.51c-2,5.1-5.08,9.07-10.24,11.11Z"/><path d="M168.77,162.22c-.33-1.5-.29-2.87,1.48-2.31,2.48.79,2.64,3.63,4,5.42.44.56-.35,2.08-1.1,1.55C171.37,165.64,167.94,165.65,168.77,162.22Z"/><path d="M166.46,287.95c.47-1.07.5-1.32.6-1.34a14.07,14.07,0,0,1,9.82.9c.1,0,0,1.14-.22,1.2C173.21,289.84,170.05,288.42,166.46,287.95Z"/><path d="M1.61,260.12c2,0,3.16.65,2.77,2.33s-.06,4.33-2.61,4.8c-1.36.25-2.09-1.05-1.63-2.32C.73,263.32-1.1,260.72,1.61,260.12Z"/><path d="M208.78,211.29c-2.78,0-5.56-.09-8.34-.16-.63,0-1.36,0-1.49-.88-.18-1.2.64-1.16,1.5-1.31,1.58-.27,3.12-1,4.7-1.06,2.27-.11,4.36.37,3.52,3.55Z"/><path d="M76.77,95.08a22.46,22.46,0,0,1-12.36-8.42C68.71,89.18,72.32,92.73,76.77,95.08Z"/><path d="M182.87,249.13l2.47-.25,6.88-.88a45.06,45.06,0,0,1-15,4.25C179,249.11,181.94,251.41,182.87,249.13Z"/><path d="M70.85,77c5.63.89,8.22,5.45,11.37,9.34Z"/><path d="M158.46,167.45c-1.66,0-2.8-1.37-3.05-3.16-.06-.4,1.55-2.67,2.84-2s3.44,1.67,3.55,3.74C161.92,168.52,160,167.07,158.46,167.45Z"/><path d="M169.89,176.23c1.4-3.51-2.5-5.27-2.83-8.79,3,2.34,5.85,4.11,6.8,7.69-.93,2.19-2.76.42-4.07.94Z"/><path d="M81.72,294.93c.13-1.66,1.73-2,2.66-2.65,1.47-1.1,2.69-4.8,4.85-2.22,1.11,1.33-2.16,3-3.58,4.33C84.7,295.26,83.27,296.37,81.72,294.93Z"/><path d="M169.21,74.17c-1.43-5.81,5.24-4.43,6.27-7.83C174.28,69.6,173.1,72.87,169.21,74.17Z"/><path d="M35.88,254.7c-2.31-3.9.37-6.51.12-9.36a1,1,0,0,1,1.35-1,1.81,1.81,0,0,1,1.42,2.27C38,249.09,37.05,251.49,35.88,254.7Z"/><path d="M60.57,229.48c-.06.29,0,.51-.13.6-.33.31-.89.89-1,.8-3.62-2-5.8,3.13-9.16,1.8-.66-.26-.29-1.3.26-1.61a19.35,19.35,0,0,1,9.1-2.42C59.94,228.64,60.29,229.22,60.57,229.48Z"/><path d="M223.7,75.66c3.27-3,5.49.27,8.58,1C228.79,79.66,226.27,78.06,223.7,75.66Z"/><path d="M195.86,233.13h-1c-1-2.05-3.4-.1-5.1-2,4.13-1.63,8.22-.09,12.6-2C201,233.65,196.81,230.09,195.86,233.13Z"/><path d="M209.22,242.41c-2.33,2.88-5.46,2.49-5.82,5.47-.1.85-2,1.1-3,.19s-.14-2,.59-2.46C203.13,244.37,205.22,242.81,209.22,242.41Z"/><path d="M171.33,266.72c2.07,3.12,5.46-.68,8.31,2-3.74.84-6.89,2-10.3.33-.24-1.7,2-1,2-2.32Z"/><path d="M105.24,236.71c-3-1.18-6.07,3.13-10-.42,3.84-.23,6.88-3,9.83.56Z"/><path d="M103.72,218.1l-2.65,0h-5.5c2.36-2.47,5.31-1.51,7.33-2.95.37-.26,1.79,1,2.73,1.51Z"/><path d="M125.58,180.75c-3.15-.46-1.35-6.49-6.27-4.94C125.16,173,125.48,173.32,125.58,180.75Z"/><path d="M65.67,157.87c-1.65.3-4.66,4.39-4.07-1.34.11-1.08-2.61-1.5-1.77-3.73C62,154.23,63.39,156.55,65.67,157.87Z"/><path d="M189.81,103.2c-3.58-.19-3.58-.19-6.37-3,3.26-1.3,6.11,2.72,9.11-.15.11,2.71-2.83,1.4-2.9,3.31Z"/><path d="M39.67,207.81c-2.06-2.3-5.19-1.79-8-2.84C35.41,202.27,35.83,202.43,39.67,207.81Z"/><path d="M154,89.44a42.93,42.93,0,0,1,5.21,2.14c.54.3,2.63.62,1.45,1.4-1,.63-1.07,1.94-1.93,2a1.53,1.53,0,0,1-1.64-1.74C157.31,91,154.13,91.84,154,89.44Z"/><path d="M222.24,264.37c.49,1.77,3.13,2.76,1.76,4.87a4,4,0,0,1-2.52.83A4.68,4.68,0,0,1,222.24,264.37Z"/><path d="M126.76,226.77c3.64-2,7.63-2.16,11.74-1.89-1.87.46-3.91.6-5.57,1.46C130.87,227.4,128.9,227.17,126.76,226.77Z"/><path d="M130.41,218.65c.9-3,1.63-4.93,4.63-4.52,2.17.3-1.06,2,.66,2.38C134.88,219.56,132.55,217.73,130.41,218.65Z"/><path d="M341.25,174.24c-1.38,1.66-2.1,4.39-3.69,4-3.06-.73-2-4.34-3-6.57-.35-.75.74-1.7,1.73-2.08C337.06,172,339.56,172.68,341.25,174.24Z"/><path d="M337.05,164.85c-1.06,1.32-.05,3.16-2.57,2.77-2.08-.32-3.41-1-4-2.76-.34-1.12.63-1.78,1.82-1.74C334.13,163.19,334.84,165.29,337.05,164.85Z"/><path d="M324.55,194.52c3.67.81,4-2.77,6.36-2.25,1.31.29,3.53.65,2.83,3-.2.68-.52,2.13-1.89.84C330.08,194.49,327.6,197.43,324.55,194.52Z"/><path d="M341.12,189.3c-4-1.09-2.43-3.92-3.23-5.71-.06-.13,1.52-1.38,1.78-1.22C342.45,184.14,339.93,186.78,341.12,189.3Z"/><path d="M241,165.71c1.53-.92,2.89-1.67,3.46-3.2-1.13-1.37-2.68,1.2-4.29-1,2.52.31,3.81-2.42,6.29-1.12-1.38,2.5,2.21,4.85.9,6.59C244.83,170.23,243.67,164.1,241,165.71Z"/><path d="M260.68,164.3c2.32.21,4.54-1.54,7-.32C264.68,166.18,264.67,166.18,260.68,164.3Z"/></g></g></svg>